<?xml version="1.0" standalone="no"?>
<!DOCTYPE svg PUBLIC "-//W3C//DTD SVG 20010904//EN"
 "http://www.w3.org/TR/2001/REC-SVG-20010904/DTD/svg10.dtd">
<svg version="1.0" xmlns="http://www.w3.org/2000/svg"
 width="16.000000pt" height="16.000000pt" viewBox="0 0 16.000000 16.000000"
 preserveAspectRatio="xMidYMid meet">

<g transform="translate(0.000000,16.000000) scale(0.100000,-0.100000)"
fill="#000000" stroke="none">
<path d="M0 80 l0 -80 80 0 80 0 0 80 0 80 -80 0 -80 0 0 -80z m108 18 c0 -18
-5 -39 -11 -45 -10 -14 -6 -16 15 -8 8 3 13 18 12 35 -1 17 2 30 7 30 5 0 9
-15 9 -34 0 -30 -4 -35 -30 -41 -17 -4 -44 -4 -60 0 -26 6 -30 11 -30 41 0 24
5 34 15 34 8 0 15 5 15 10 0 6 13 10 29 10 27 0 30 -3 29 -32z"/>
<path d="M50 102 c-8 -4 -15 -17 -16 -29 0 -12 3 -20 7 -17 4 2 10 0 14 -6 9
-14 45 6 45 25 0 9 -9 15 -21 15 -17 0 -20 -5 -16 -21 4 -16 3 -19 -5 -11 -16
16 -3 40 24 45 19 3 19 4 3 5 -11 0 -27 -2 -35 -6z"/>
</g>
</svg>
