<?xml version="1.0" standalone="no"?>
<!DOCTYPE svg PUBLIC "-//W3C//DTD SVG 20010904//EN"
 "http://www.w3.org/TR/2001/REC-SVG-20010904/DTD/svg10.dtd">
<svg version="1.0" xmlns="http://www.w3.org/2000/svg"
 width="32.000000pt" height="32.000000pt" viewBox="0 0 32.000000 32.000000"
 preserveAspectRatio="xMidYMid meet">

<g transform="translate(0.000000,32.000000) scale(0.100000,-0.100000)"
fill="#000000" stroke="none">
<path d="M0 160 l0 -160 160 0 160 0 0 160 0 160 -160 0 -160 0 0 -160z m210
95 c6 -8 9 -18 6 -23 -3 -6 0 -15 8 -21 11 -9 15 -9 18 0 2 7 11 10 22 6 14
-6 16 -18 14 -74 l-3 -68 -45 -9 c-79 -16 -111 -12 -137 18 -25 29 -32 89 -12
102 8 5 10 -1 5 -19 -13 -55 37 -106 91 -93 15 4 40 10 56 13 25 5 27 8 27 59
0 30 -4 54 -9 54 -5 0 -6 -20 -4 -44 3 -25 1 -46 -5 -50 -7 -4 -10 8 -9 35 1
32 -4 45 -22 60 -25 20 -86 26 -96 9 -3 -5 -17 -10 -31 -10 -22 0 -24 -3 -24
-54 0 -34 5 -56 13 -59 6 -2 9 -8 5 -12 -4 -4 -14 -5 -23 -1 -13 5 -15 19 -13
73 l3 68 33 3 c18 2 30 8 26 13 -11 18 18 39 56 39 21 0 43 -7 50 -15z m-10
-65 c24 -24 26 -57 3 -82 -33 -37 -103 -11 -103 39 0 28 33 63 60 63 11 0 29
-9 40 -20z"/>
<path d="M120 243 c0 -5 18 -8 40 -8 22 0 40 3 40 8 0 4 -18 7 -40 7 -22 0
-40 -3 -40 -7z"/>
<path d="M132 178 c-34 -34 6 -90 48 -68 35 19 20 80 -20 80 -9 0 -21 -5 -28
-12z"/>
</g>
</svg>
