<?xml version="1.0" standalone="no"?>
<!DOCTYPE svg PUBLIC "-//W3C//DTD SVG 20010904//EN"
 "http://www.w3.org/TR/2001/REC-SVG-20010904/DTD/svg10.dtd">
<svg version="1.0" xmlns="http://www.w3.org/2000/svg"
 width="24.000000pt" height="24.000000pt" viewBox="0 0 24.000000 24.000000"
 preserveAspectRatio="xMidYMid meet">

<g transform="translate(0.000000,24.000000) scale(0.100000,-0.100000)"
fill="#000000" stroke="none">
<path d="M37 233 c-4 -3 -7 -28 -7 -55 0 -31 -6 -55 -15 -65 -11 -11 -15 -30
-13 -62 l3 -46 45 0 c39 0 45 3 48 23 3 18 10 22 45 24 l42 1 -45 7 -45 7 45
2 c33 1 41 4 30 11 -11 7 -4 10 28 10 l42 0 0 75 0 75 -98 0 c-54 0 -102 -3
-105 -7z m193 -68 l0 -65 -59 0 c-45 0 -68 6 -95 23 -31 19 -35 27 -36 65 l0
42 95 0 95 0 0 -65z m-166 -41 c25 -10 19 -23 -8 -18 -14 2 -27 0 -30 -4 -3
-5 10 -8 29 -7 18 1 40 -2 47 -6 10 -7 10 -9 1 -9 -8 0 -13 -14 -13 -35 0 -34
-1 -35 -40 -35 l-40 0 0 42 c0 24 7 49 17 60 18 21 16 20 37 12z m83 -40 c-3
-3 -12 -4 -19 -1 -8 3 -5 6 6 6 11 1 17 -2 13 -5z"/>
<path d="M95 199 c-11 -17 1 -21 15 -4 8 9 8 15 2 15 -6 0 -14 -5 -17 -11z"/>
<path d="M164 194 c9 -8 16 -23 17 -32 0 -10 3 -12 5 -5 7 15 -13 53 -27 53
-6 0 -3 -7 5 -16z"/>
<path d="M138 172 c9 -10 19 -14 21 -9 2 5 -3 13 -10 18 -24 15 -30 10 -11 -9z"/>
<path d="M81 163 c-1 -19 36 -53 57 -52 11 0 8 4 -9 10 -15 5 -31 20 -37 32
-6 12 -11 16 -11 10z"/>
<path d="M22 50 c0 -19 2 -27 5 -17 2 9 2 25 0 35 -3 9 -5 1 -5 -18z"/>
<path d="M52 50 c0 -19 2 -27 5 -17 2 9 2 25 0 35 -3 9 -5 1 -5 -18z"/>
<path d="M72 50 c0 -19 2 -27 5 -17 2 9 2 25 0 35 -3 9 -5 1 -5 -18z"/>
</g>
</svg>
