<?xml version="1.0" standalone="no"?>
<!DOCTYPE svg PUBLIC "-//W3C//DTD SVG 20010904//EN"
 "http://www.w3.org/TR/2001/REC-SVG-20010904/DTD/svg10.dtd">
<svg version="1.0" xmlns="http://www.w3.org/2000/svg"
 width="24.000000pt" height="24.000000pt" viewBox="0 0 24.000000 24.000000"
 preserveAspectRatio="xMidYMid meet">

<g transform="translate(0.000000,24.000000) scale(0.100000,-0.100000)"
fill="#000000" stroke="none">
<path d="M71 232 c-6 -2 -11 -8 -11 -14 0 -5 -9 -17 -19 -26 -19 -16 -19 -20
-3 -105 l16 -88 70 3 71 3 13 70 c15 85 9 130 -21 147 -21 12 -93 18 -116 10z
m129 -34 c0 -12 -13 -9 -32 6 -26 19 -22 26 7 13 14 -7 25 -15 25 -19z m-48 0
c14 -10 33 -18 42 -18 9 0 16 -4 16 -10 0 -6 -27 -10 -61 -10 -44 0 -59 3 -56
13 2 6 12 11 22 9 10 -2 14 1 10 7 -11 18 -37 12 -42 -9 -5 -21 -53 -30 -53
-10 0 6 9 10 20 10 14 0 20 7 20 21 0 16 5 20 28 18 15 -2 39 -11 54 -21z
m-83 -88 c-2 -21 0 -42 4 -46 10 -10 9 -54 -2 -54 -5 0 -12 21 -16 48 -3 26
-9 57 -12 70 -4 16 -1 22 12 22 13 0 16 -8 14 -40z m51 19 c0 -14 -5 -19 -17
-17 -26 5 -29 38 -4 38 15 0 21 -6 21 -21z m40 -4 c0 -18 -4 -23 -15 -19 -20
8 -20 44 0 44 9 0 15 -9 15 -25z m36 -37 c-9 -85 -26 -98 -22 -17 4 81 4 79
17 79 8 0 10 -18 5 -62z m-36 2 c10 -6 11 -12 5 -19 -20 -19 -85 -17 -85 3 0
24 51 34 80 16z m-12 -53 c7 -20 -1 -28 -25 -25 -38 4 -43 33 -6 32 16 0 29
-4 31 -7z"/>
</g>
</svg>
